mtllib model_17.mtl
o model_17
v 0.06269600242376328 -0.000011986599929514341 30.799480438232422 
v -4.081909656524658 0.9625120162963867 32.36473846435547 
v 1.0475528240203857 -0.000011986599929514341 30.282615661621094 
v -8.062372207641602 2.030518054962158 33.75770950317383 
v -11.386263847351074 15.222970008850098 26.253999710083008 
v -9.498621940612793 13.100143432617188 26.253999710083008 
v 1.8272310495376587 -0.000011986599929514341 29.65211296081543 
v -8.595836639404297 12.46725082397461 26.253999710083008 
v 72.61381530761719 100.00059509277344 26.253999710083008 
v -7.693051338195801 12.03333568572998 26.253999710083008 
v -6.872337341308594 11.63418197631836 26.253999710083008 
v -6.051623344421387 11.235028266906738 26.253999710083008 
v -1.8249461650848389 6.817965984344482 26.253999710083008 
v 3.2634806632995605 -0.000011986599929514341 26.253999710083008 
v 72.61381530761719 -0.000011986599929514341 26.253999710083008 
v -11.386263847351074 15.222970008850098 26.253999710083008 
v -11.386263847351074 100.00059509277344 26.253999710083008 
v 3.2634806632995605 -0.000011986599929514341 26.253999710083008 
v 3.509694814682007 -0.000011986599929514341 27.76060676574707 
v -1.8249461650848389 6.817965984344482 26.253999710083008 
v 3.4276235103607178 -0.000011986599929514341 28.592723846435547 
v 2.6479451656341553 -0.000011986599929514341 29.017946243286133 
v -6.051623344421387 11.235028266906738 26.253999710083008 
v 1.8272310495376587 -0.000011986599929514341 29.65211296081543 
v -6.872337341308594 11.63418197631836 26.253999710083008 
v -7.693051338195801 12.03333568572998 26.253999710083008 
v -8.595836639404297 12.46725082397461 26.253999710083008 
vn -0.3825235962867737 -0.707886278629303 -0.5937783122062683 
vn -0.3825235962867737 -0.707886278629303 -0.5937783122062683 
vn -0.4960644245147705 -0.7636412382125854 -0.41324591636657715 
vn -0.3825235962867737 -0.707886278629303 -0.5937783122062683 
vn -0.7204908728599548 -0.6018249988555908 -0.34452807903289795 
vn -0.4217967987060547 -0.660136878490448 -0.6215357780456543 
vn -0.3754850924015045 -0.705737829208374 -0.6007870435714722 
vn -0.20573239028453827 -0.4769412875175476 -0.8545181155204773 
vn 2.0682311115474694e-13 4.2775797696334704e-26 -1 
vn -0.11339222639799118 -0.3318344056606293 -0.9364978075027466 
vn -0.11339222639799118 -0.3318344056606293 -0.9364978075027466 
vn -0.3579663336277008 -0.5998711585998535 -0.715552031993866 
vn 2.0682311115474694e-13 4.2775797696334704e-26 -1 
vn 2.0682311115474694e-13 4.2775797696334704e-26 -1 
vn 2.0682311115474694e-13 4.2775797696334704e-26 -1 
vn 2.0682311115474694e-13 4.2775797696334704e-26 -1 
vn 2.0682311115474694e-13 4.2775797696334704e-26 -1 
vn -0.6847568154335022 -0.7221316695213318 0.0981530249118805 
vn -0.4646688401699066 -0.8853524923324585 0.0152922747656703 
vn -0.5920398235321045 -0.7744043469429016 -0.22312943637371063 
vn -0.3593372404575348 -0.9081974029541016 -0.21460255980491638 
vn -0.4720395803451538 -0.742124617099762 -0.4758462607860565 
vn -0.3579663336277008 -0.5998711585998535 -0.715552031993866 
vn -0.3754850924015045 -0.705737829208374 -0.6007870435714722 
vn -0.11339222639799118 -0.3318344056606293 -0.9364978075027466 
vn -0.11339222639799118 -0.3318344056606293 -0.9364978075027466 
vn -0.20573239028453827 -0.4769412875175476 -0.8545181155204773 
vt 0.8674004077911377 -0.024953100830316544 
vt 0.9189497232437134 -0.024327440187335014 
vt 0.8554007411003113 -0.022075064480304718 
vt 0.9681726098060608 -0.02169966883957386 
vt 1.0029469728469849 0.15060709416866302 
vt 0.9774784445762634 0.1309613734483719 
vt 0.8445031642913818 -0.01832110434770584 
vt 0.9665808081626892 0.1247047707438469 
vt 3.3306698679688577e-16 1.0000030994415283 
vt 0.9559280872344971 0.12032515555620193 
vt 0.9461325407028198 0.11632093042135239 
vt 0.9363369345664978 0.11231670528650284 
vt 0.8860120177268982 0.06814511120319366 
vt 0.8256466388702393 -0.00005183200119063258 
vt 3.3306698679688577e-16 -0.00005183200119063258 
vt 1.0000083446502686 0.1522338092327118 
vt 1.0000083446502686 1.0000030994415283 
vt 0.8256466388702393 -0.00005183200119063258 
vt 0.8366667032241821 -0.012064504437148571 
vt 0.8860120177268982 0.06814511120319366 
vt 0.8437684774398804 -0.017570311203598976 
vt 0.8534416556358337 -0.01807083934545517 
vt 0.9299697875976562 0.1166963204741478 
vt 0.8642168045043945 -0.01982268877327442 
vt 0.9382960200309753 0.1219518706202507 
vt 0.9466223120689392 0.127207413315773 
vt 0.9555608034133911 0.13296347856521606 
s on 
f 1/1/1 2/2/2 3/3/3 
f 2/2/2 4/4/4 3/3/3 
f 3/3/3 4/4/4 3/3/3 
f 4/4/4 5/5/5 3/3/3 
f 3/3/3 5/5/5 3/3/3 
f 5/5/5 6/6/6 3/3/3 
f 3/3/3 6/6/6 7/7/7 
f 6/6/6 6/6/6 7/7/7 
f 7/7/7 6/6/6 8/8/8 
f 6/6/6 9/9/9 8/8/8 
f 8/8/8 9/9/9 10/10/10 
f 9/9/9 9/9/9 10/10/10 
f 10/10/10 9/9/9 11/11/11 
f 9/9/9 9/9/9 11/11/11 
f 11/11/11 9/9/9 12/12/12 
f 9/9/9 9/9/9 12/12/12 
f 12/12/12 9/9/9 13/13/13 
f 9/9/9 9/9/9 13/13/13 
f 13/13/13 9/9/9 14/14/14 
f 9/9/9 15/15/15 14/14/14 
f 14/14/14 15/15/15 15/15/15 
f 15/15/15 6/6/6 15/15/15 
f 15/15/15 6/6/6 6/6/6 
f 6/6/6 16/16/16 6/6/6 
f 6/6/6 16/16/16 9/9/9 
f 16/16/16 17/17/17 9/9/9 
f 9/9/9 17/17/17 17/17/17 
f 17/17/17 18/18/18 17/17/17 
f 17/17/17 18/18/18 18/18/18 
f 18/18/18 19/19/19 18/18/18 
f 18/18/18 19/19/19 20/20/20 
f 19/19/19 21/21/21 20/20/20 
f 20/20/20 21/21/21 20/20/20 
f 21/21/21 22/22/22 20/20/20 
f 20/20/20 22/22/22 23/23/23 
f 22/22/22 24/24/24 23/23/23 
f 23/23/23 24/24/24 25/25/25 
f 24/24/24 24/24/24 25/25/25 
f 25/25/25 24/24/24 26/26/26 
f 24/24/24 27/27/27 26/26/26 

