mtllib model_8.mtl
o model_8
v 848.4453125 86.65398406982422 -5.017203330993652 
v 848.5199584960938 86.65398406982422 -5.587013244628906 
v 848.4453125 25.65399932861328 -5.017203330993652 
v 848.5199584960938 25.65399932861328 -5.587013244628906 
v 854.9000244140625 86.65398406982422 -17.983850479125977 
v 854.9000244140625 25.65399932861328 -17.983850479125977 
v 865.1604614257812 86.65398406982422 -27.434354782104492 
v 865.1604614257812 25.65399932861328 -27.434354782104492 
v 878.0325927734375 86.65398406982422 -32.81280517578125 
v 878.0325927734375 25.65399932861328 -32.81280517578125 
v 891.949462890625 86.65398406982422 -33.465999603271484 
v 891.949462890625 25.65399932861328 -33.465999603271484 
v 905.2693481445312 86.65398406982422 -29.310558319091797 
v 905.2693481445312 25.65399932861328 -29.310558319091797 
v 916.3505859375 86.65398406982422 -20.860694885253906 
v 916.3505859375 25.65399932861328 -20.860694885253906 
v 923.8873291015625 86.65398406982422 -9.130951881408691 
v 923.8873291015625 25.65399932861328 -9.130951881408691 
v 924.8201293945312 86.65398406982422 -5.017203330993652 
v 924.8201293945312 25.65399932861328 -5.017203330993652 
vn -0.9916970729827881 0.0037763919681310654 -0.12854042649269104 
vn -0.9542446732521057 -1.9693608180847144e-13 -0.2990269064903259 
vn -0.9916970729827881 0.0037763919681310654 -0.12854042649269104 
vn -0.9542446732521057 -1.9693608180847144e-13 -0.2990269064903259 
vn -0.7941284775733948 -1.6424412014898887e-13 -0.607749879360199 
vn -0.7941284775733948 -1.6424412014898887e-13 -0.607749879360199 
vn -0.5416429042816162 -1.1202426790021813e-13 -0.8406086564064026 
vn -0.5416429042816162 -1.1202426790021813e-13 -0.8406086564064026 
vn -0.22096672654151917 0.0037937466986477375 -0.9752739667892456 
vn -0.22096672654151917 0.0037937466986477375 -0.9752739667892456 
vn 0.1263735443353653 0 -0.9919826984405518 
vn 0.1263735443353653 0 -0.9919826984405518 
vn 0.4584618806838989 0 -0.888714075088501 
vn 0.4584618806838989 0 -0.888714075088501 
vn 0.7351005673408508 0 -0.677958071231842 
vn 0.7351005673408508 0 -0.677958071231842 
vn 0.9228310585021973 0 -0.3852050006389618 
vn 0.9228310585021973 0 -0.3852050006389618 
vn 0.97575443983078 0 -0.21886809170246124 
vn 0.97575443983078 0 -0.21886809170246124 
vt 1.028011679649353 0.9970253109931946 
vt 1.0270029306411743 0.9970253109931946 
vt 1.028011679649353 0.02869350090622902 
vt 1.0270029306411743 0.02869350090622902 
vt 0.9405065774917603 0.9970253109931946 
vt 0.9405065774917603 0.02869350090622902 
vt 0.8019358515739441 0.9970253109931946 
vt 0.8019358515739441 0.02869350090622902 
vt 0.627934455871582 0.9970253109931946 
vt 0.627934455871582 0.02869350090622902 
vt 0.4395589530467987 0.9970253109931946 
vt 0.4395589530467987 0.02869350090622902 
vt 0.2595053017139435 0.9970253109931946 
vt 0.2595053017139435 0.02869350090622902 
vt 0.10958666354417801 0.9970253109931946 
vt 0.10958666354417801 0.02869350090622902 
vt 0.007707561831921339 0.9970253109931946 
vt 0.007707561831921339 0.02869350090622902 
vt -0.004775150213390589 0.9970253109931946 
vt -0.004775150213390589 0.02869350090622902 
s on 
f 1/1/1 2/2/2 3/3/3 
f 2/2/2 2/2/2 3/3/3 
f 3/3/3 2/2/2 4/4/4 
f 2/2/2 5/5/5 4/4/4 
f 4/4/4 5/5/5 6/6/6 
f 5/5/5 7/7/7 6/6/6 
f 6/6/6 7/7/7 8/8/8 
f 7/7/7 9/9/9 8/8/8 
f 8/8/8 9/9/9 10/10/10 
f 9/9/9 11/11/11 10/10/10 
f 10/10/10 11/11/11 12/12/12 
f 11/11/11 13/13/13 12/12/12 
f 12/12/12 13/13/13 14/14/14 
f 13/13/13 15/15/15 14/14/14 
f 14/14/14 15/15/15 16/16/16 
f 15/15/15 17/17/17 16/16/16 
f 16/16/16 17/17/17 18/18/18 
f 17/17/17 19/19/19 18/18/18 
f 18/18/18 19/19/19 20/20/20 

